# xmcd CD database file generated by Grip 2.95
# 
# Track frame offsets:
#       150
#       11159
#       25539
#       33984
#       44194
#       54091
#       64691
#       75922
#       86766
#       97476
#       110469
#       121798
# 
# Disc length: 1762 seconds
# 
# Revision: 3
# Processed by: cddbd v1.4PL0 Copyright (c) Steve Scherf et al.
# Submitted via: Grip 2.95
# 
DISCID=9206e00c
DTITLE=Patsy Cline - Platinum Series
DYEAR=1900
DGENRE=
TTITLE0=Don't Ever Leave Me Again
TTITLE1=Then You'll Know
TTITLE2=Come On In
TTITLE3=Pick Me Up
TTITLE4=Turn The Card Slowly
TTITLE5=Stop, Look, and Listen
TTITLE6=The Heart You Break May Be Your Own
TTITLE7=I Cried All The Way To The Alter
TTITLE8=Honky Tonk Merry Go Round
TTITLE9=If I Could See The World
TTITLE10=Cry Not For Me
TTITLE11=One Cigarette Away
EXTD=
EXTT0=
EXTT1=
EXTT2=
EXTT3=
EXTT4=
EXTT5=
EXTT6=
EXTT7=
EXTT8=
EXTT9=
EXTT10=
EXTT11=
PLAYORDER=
